<?xml version="1.0" encoding="UTF-8"?>
<svg id="Layer_1" data-name="Layer 1" xmlns="http://www.w3.org/2000/svg" viewBox="0 0 878.08 349.75">
  <defs>
    <style>
      .cls-1 {
        fill: #fff;
      }

      .cls-2 {
        fill: #3f9e6e;
      }

      .cls-3 {
        fill: #52b788;
      }

      .cls-4 {
        fill: #308257;
      }
    </style>
  </defs>
  <g>
    <rect class="cls-2" x="135.36" y="189.5" width="3.45" height="36.53"/>
    <rect class="cls-2" x="156.78" y="145.95" width="3.45" height="36.53"/>
    <rect class="cls-2" x="208.23" y="145.95" width="3.45" height="36.53"/>
    <rect class="cls-2" x="186.97" y="189.52" width="3.45" height="36.53"/>
    <g>
      <path class="cls-4" d="M237.17,312.12c-20.71,11.57-44.56,18.16-69.92,18.16-79.35,0-143.9-64.56-143.9-143.9,0-74.48,56.87-135.93,129.48-143.19l-12.02-12,16.16-15.51,39.3,39.3-39.3,39.3-15.82-15.85,9.84-9.83c-57.9,7.94-102.64,57.74-102.64,117.78,0,65.56,53.34,118.9,118.9,118.9,20.81,0,40.39-5.37,57.42-14.81l12.5,21.65Z"/>
      <path class="cls-4" d="M257.15,264.12l18.98,16.25c-9.58,11.08-20.81,20.68-33.31,28.42l-12.5-21.66c10.05-6.31,19.09-14.08,26.83-23.01Z"/>
      <path class="cls-2" d="M278.46,228.43l23.54,8.45c-5.25,13.97-12.61,26.91-21.69,38.43l-19.01-16.27c7.15-9.22,12.96-19.52,17.16-30.61Z"/>
      <path class="cls-3" d="M311.15,186.38c0,15.46-2.45,30.35-6.98,44.32l-23.55-8.46h0c3.59-11.33,5.53-23.37,5.53-35.86h25Z"/>
    </g>
    <rect class="cls-1" x="105.17" y="133.12" width="34.01" height="105.66" transform="translate(93.26 -34.66) rotate(25.84)"/>
    <rect class="cls-1" x="156.58" y="133.12" width="34.01" height="105.66" transform="translate(98.41 -57.07) rotate(25.84)"/>
    <rect class="cls-1" x="226.25" y="52.53" width="34.01" height="190.49" transform="translate(88.73 -91.25) rotate(25.84)"/>
  </g>
  <g>
    <path class="cls-1" d="M458.97,108.96c-.43-11.61-.86-25.67-.86-39.72h-.43c-3.01,12.33-7.03,26.1-10.75,37.42l-11.76,37.71h-17.06l-10.32-37.28c-3.15-11.47-6.45-25.24-8.75-37.85h-.29c-.57,13.05-1,27.96-1.72,40l-1.72,36.71h-20.22l6.17-96.64h29.11l9.46,32.26c3.01,11.04,6.02,23.23,8.17,34.56h.43c2.72-11.18,6.02-23.95,9.18-34.7l10.32-32.12h28.53l5.3,96.64h-21.36l-1.43-36.99Z"/>
    <path class="cls-1" d="M520.91,145.95v-39.58l-30.54-57.07h24.95l9.89,23.23c3.01,7.03,5.02,12.19,7.46,18.5h.29c2.15-6.02,4.45-11.61,7.31-18.5l9.75-23.23h24.52l-31.83,56.35v40.29h-21.79Z"/>
    <path class="cls-1" d="M613.97,50.6c6.74-1.15,16.2-2.01,29.54-2.01s23.09,2.58,29.54,7.74c6.17,4.88,10.32,12.91,10.32,22.37s-3.15,17.49-8.89,22.94c-7.46,7.03-18.5,10.18-31.4,10.18-2.87,0-5.45-.14-7.46-.43v34.56h-21.65V50.6Zm21.65,43.88c1.86,.43,4.16,.57,7.31,.57,11.61,0,18.78-5.88,18.78-15.77,0-8.89-6.17-14.2-17.06-14.2-4.45,0-7.46,.43-9.03,.86v28.53Z"/>
    <path class="cls-1" d="M768.25,143.23c-4.02,2.01-13.05,4.3-24.81,4.3-33.41,0-50.62-20.93-50.62-48.46,0-32.98,23.52-51.33,52.77-51.33,11.33,0,19.93,2.29,23.8,4.3l-4.44,17.35c-4.45-1.86-10.61-3.58-18.35-3.58-17.35,0-30.83,10.47-30.83,31.98,0,19.36,11.47,31.54,30.97,31.54,6.6,0,13.91-1.43,18.21-3.15l3.3,17.06Z"/>
    <path class="cls-1" d="M782.58,50.6c6.74-1.15,16.2-2.01,29.54-2.01s23.09,2.58,29.54,7.74c6.17,4.88,10.32,12.91,10.32,22.37s-3.15,17.49-8.89,22.94c-7.46,7.03-18.5,10.18-31.4,10.18-2.87,0-5.45-.14-7.46-.43v34.56h-21.65V50.6Zm21.65,43.88c1.86,.43,4.16,.57,7.31,.57,11.61,0,18.78-5.88,18.78-15.77,0-8.89-6.17-14.2-17.06-14.2-4.45,0-7.46,.43-9.03,.86v28.53Z"/>
    <path class="cls-1" d="M448.22,287.23c-4.02,2.01-13.05,4.3-24.81,4.3-33.41,0-50.62-20.93-50.62-48.46,0-32.98,23.52-51.33,52.77-51.33,11.33,0,19.93,2.29,23.8,4.3l-4.44,17.35c-4.45-1.86-10.61-3.58-18.35-3.58-17.35,0-30.83,10.47-30.83,31.98,0,19.36,11.47,31.54,30.97,31.54,6.6,0,13.91-1.43,18.21-3.15l3.3,17.06Z"/>
    <path class="cls-1" d="M461.41,188.15h21.79v101.8h-21.79v-101.8Z"/>
    <path class="cls-1" d="M559.34,272.89c0,6.74,.29,13.19,1,17.06h-19.64l-1.29-7.03h-.43c-4.59,5.59-11.76,8.6-20.07,8.6-14.2,0-22.66-10.32-22.66-21.51,0-18.21,16.35-26.96,41.15-26.81v-1c0-3.73-2.01-9.03-12.76-9.03-7.17,0-14.77,2.44-19.36,5.31l-4.01-14.05c4.88-2.72,14.48-6.17,27.24-6.17,23.37,0,30.83,13.76,30.83,30.25v24.38Zm-21.22-16.06c-11.47-.14-20.36,2.58-20.36,11.04,0,5.59,3.73,8.32,8.6,8.32,5.45,0,9.89-3.58,11.33-8.03,.29-1.15,.43-2.44,.43-3.73v-7.6Z"/>
    <path class="cls-1" d="M599.06,200.33c0,6.02-4.59,10.9-11.76,10.9s-11.47-4.88-11.33-10.9c-.14-6.31,4.45-11.04,11.47-11.04s11.47,4.73,11.62,11.04Zm-22.51,89.62v-70.12h21.79v70.12h-21.79Z"/>
    <path class="cls-1" d="M615.83,242.2c0-8.75-.29-16.2-.57-22.37h18.35l1,9.46h.43c3.01-4.45,9.18-11.04,21.22-11.04,9.03,0,16.2,4.59,19.21,11.9h.29c2.58-3.73,5.74-6.45,9.03-8.46,3.87-2.29,8.17-3.44,13.33-3.44,13.48,0,23.66,9.46,23.66,30.4v41.3h-21.22v-38.14c0-10.18-3.3-16.06-10.32-16.06-5.02,0-8.6,3.44-10.04,7.6-.57,1.58-.86,3.87-.86,5.59v41.01h-21.22v-39.29c0-8.89-3.15-14.91-10.04-14.91-5.59,0-8.89,4.3-10.18,7.89-.72,1.72-.86,3.73-.86,5.45v40.87h-21.22v-47.75Z"/>
  </g>
</svg>